<?xml version="1.0" encoding="UTF-8"?>
<svg xmlns="http://www.w3.org/2000/svg" width="1254" height="1254" viewBox="0 0 1254 1254" role="img" aria-label="Medusa profile glyph">
  <path d="M 403.0 256.0 L 364.0 294.0 L 400.0 308.0 L 444.0 295.0 L 539.0 324.0 L 653.0 262.0 L 707.0 253.0 L 761.0 270.0 L 802.0 324.0 L 767.0 287.0 L 729.0 270.0 L 649.0 280.0 L 612.0 310.0 L 676.0 302.0 L 724.0 319.0 L 760.0 360.0 L 761.0 406.0 L 739.0 413.0 L 659.0 400.0 L 565.0 477.0 L 485.0 487.0 L 534.0 506.0 L 668.0 498.0 L 709.0 480.0 L 739.0 445.0 L 734.0 475.0 L 709.0 507.0 L 632.0 556.0 L 523.0 581.0 L 478.0 642.0 L 482.0 689.0 L 536.0 761.0 L 530.0 788.0 L 478.0 862.0 L 480.0 923.0 L 518.0 962.0 L 597.0 972.0 L 582.0 950.0 L 534.0 928.0 L 519.0 899.0 L 526.0 865.0 L 577.0 813.0 L 594.0 768.0 L 584.0 729.0 L 539.0 683.0 L 531.0 654.0 L 550.0 622.0 L 623.0 598.0 L 675.0 549.0 L 640.0 607.0 L 567.0 634.0 L 553.0 652.0 L 560.0 676.0 L 608.0 723.0 L 618.0 780.0 L 599.0 827.0 L 545.0 878.0 L 540.0 904.0 L 601.0 948.0 L 616.0 1000.0 L 578.0 983.0 L 524.0 982.0 L 488.0 962.0 L 421.0 1052.0 L 535.0 1057.0 L 742.0 1157.0 L 827.0 1171.0 L 806.0 1125.0 L 716.0 1010.0 L 731.0 877.0 L 758.0 835.0 L 847.0 855.0 L 890.0 847.0 L 903.0 823.0 L 896.0 786.0 L 920.0 765.0 L 911.0 744.0 L 892.0 742.0 L 929.0 728.0 L 922.0 690.0 L 965.0 665.0 L 917.0 570.0 L 919.0 493.0 L 890.0 398.0 L 909.0 381.0 L 936.0 382.0 L 968.0 423.0 L 1050.0 463.0 L 1032.0 447.0 L 1033.0 416.0 L 996.0 363.0 L 951.0 334.0 L 892.0 337.0 L 854.0 368.0 L 855.0 319.0 L 837.0 271.0 L 800.0 232.0 L 750.0 208.0 L 650.0 210.0 L 532.0 273.0 L 448.0 250.0 Z M 464.0 670.0 L 442.0 679.0 L 405.0 680.0 L 379.0 686.0 L 336.0 713.0 L 322.0 718.0 L 284.0 719.0 L 260.0 725.0 L 244.0 735.0 L 222.0 757.0 L 216.0 766.0 L 213.0 778.0 L 203.0 791.0 L 205.0 799.0 L 209.0 800.0 L 214.0 807.0 L 221.0 808.0 L 234.0 802.0 L 277.0 791.0 L 294.0 781.0 L 309.0 766.0 L 350.0 756.0 L 380.0 736.0 L 396.0 729.0 L 423.0 727.0 L 432.0 730.0 L 442.0 738.0 L 446.0 746.0 L 446.0 755.0 L 442.0 763.0 L 431.0 773.0 L 392.0 787.0 L 374.0 797.0 L 359.0 812.0 L 349.0 833.0 L 349.0 859.0 L 357.0 877.0 L 373.0 894.0 L 399.0 910.0 L 408.0 924.0 L 405.0 940.0 L 382.0 958.0 L 370.0 971.0 L 365.0 986.0 L 366.0 997.0 L 384.0 979.0 L 419.0 966.0 L 430.0 959.0 L 443.0 944.0 L 448.0 931.0 L 449.0 913.0 L 442.0 894.0 L 429.0 879.0 L 408.0 865.0 L 400.0 855.0 L 398.0 845.0 L 402.0 834.0 L 421.0 820.0 L 453.0 811.0 L 474.0 800.0 L 491.0 783.0 L 500.0 764.0 L 502.0 747.0 L 499.0 734.0 L 475.0 704.0 L 467.0 685.0 Z M 197.0 496.0 L 195.0 526.0 L 200.0 543.0 L 214.0 562.0 L 232.0 574.0 L 224.0 595.0 L 220.0 621.0 L 221.0 629.0 L 210.0 643.0 L 206.0 655.0 L 229.0 640.0 L 241.0 639.0 L 251.0 632.0 L 257.0 614.0 L 269.0 594.0 L 284.0 582.0 L 303.0 574.0 L 320.0 571.0 L 353.0 574.0 L 409.0 597.0 L 430.0 602.0 L 452.0 602.0 L 466.0 599.0 L 482.0 592.0 L 493.0 583.0 L 493.0 581.0 L 467.0 575.0 L 446.0 567.0 L 391.0 537.0 L 352.0 525.0 L 337.0 523.0 L 303.0 525.0 L 285.0 530.0 L 263.0 541.0 L 253.0 541.0 L 243.0 536.0 L 238.0 530.0 L 234.0 519.0 L 236.0 505.0 L 242.0 494.0 L 252.0 484.0 L 269.0 475.0 L 284.0 472.0 L 314.0 474.0 L 364.0 496.0 L 378.0 498.0 L 373.0 474.0 L 374.0 446.0 L 340.0 432.0 L 315.0 426.0 L 287.0 425.0 L 265.0 429.0 L 247.0 436.0 L 231.0 446.0 L 218.0 458.0 L 207.0 473.0 Z M 531.0 340.0 L 504.0 341.0 L 479.0 348.0 L 460.0 357.0 L 435.0 374.0 L 413.0 395.0 L 400.0 413.0 L 391.0 431.0 L 385.0 455.0 L 386.0 479.0 L 393.0 501.0 L 405.0 520.0 L 421.0 536.0 L 438.0 548.0 L 458.0 558.0 L 478.0 565.0 L 503.0 570.0 L 515.0 570.0 L 529.0 562.0 L 547.0 555.0 L 607.0 543.0 L 633.0 532.0 L 650.0 521.0 L 646.0 518.0 L 626.0 515.0 L 599.0 515.0 L 553.0 520.0 L 517.0 516.0 L 497.0 510.0 L 472.0 498.0 L 458.0 488.0 L 447.0 476.0 L 441.0 462.0 L 441.0 449.0 L 444.0 439.0 L 455.0 421.0 L 475.0 403.0 L 492.0 394.0 L 511.0 389.0 L 532.0 389.0 L 537.0 385.0 L 564.0 350.0 L 562.0 347.0 Z M 749.0 374.0 L 746.0 365.0 L 736.0 348.0 L 724.0 336.0 L 704.0 324.0 L 684.0 318.0 L 669.0 316.0 L 650.0 317.0 L 631.0 321.0 L 607.0 331.0 L 588.0 344.0 L 566.0 366.0 L 541.0 398.0 L 526.0 411.0 L 515.0 417.0 L 505.0 420.0 L 487.0 421.0 L 478.0 419.0 L 473.0 420.0 L 460.0 435.0 L 455.0 447.0 L 454.0 457.0 L 456.0 460.0 L 486.0 471.0 L 514.0 472.0 L 525.0 470.0 L 537.0 466.0 L 559.0 453.0 L 573.0 440.0 L 594.0 413.0 L 606.0 400.0 L 615.0 392.0 L 637.0 379.0 L 660.0 372.0 L 687.0 371.0 L 711.0 376.0 L 738.0 388.0 L 746.0 390.0 L 749.0 388.0 L 750.0 385.0 Z M 343.0 177.0 L 343.0 179.0 L 355.0 190.0 L 377.0 197.0 L 372.0 208.0 L 372.0 222.0 L 373.0 223.0 L 382.0 208.0 L 393.0 197.0 L 415.0 184.0 L 426.0 182.0 L 435.0 184.0 L 457.0 185.0 L 474.0 182.0 L 488.0 176.0 L 504.0 177.0 L 515.0 183.0 L 526.0 194.0 L 533.0 207.0 L 537.0 227.0 L 536.0 243.0 L 533.0 259.0 L 540.0 258.0 L 550.0 253.0 L 584.0 230.0 L 588.0 226.0 L 588.0 208.0 L 585.0 192.0 L 577.0 173.0 L 567.0 159.0 L 557.0 149.0 L 543.0 139.0 L 522.0 129.0 L 504.0 124.0 L 490.0 122.0 L 463.0 123.0 L 413.0 136.0 L 407.0 139.0 L 402.0 144.0 L 401.0 151.0 L 392.0 160.0 L 390.0 164.0 L 390.0 169.0 L 393.0 172.0 L 399.0 174.0 L 400.0 176.0 L 384.0 183.0 L 362.0 184.0 Z M 836.0 133.0 L 820.0 132.0 L 814.0 130.0 L 804.0 123.0 L 815.0 115.0 L 817.0 111.0 L 816.0 105.0 L 812.0 101.0 L 797.0 94.0 L 789.0 85.0 L 783.0 82.0 L 723.0 69.0 L 704.0 68.0 L 692.0 70.0 L 677.0 76.0 L 660.0 88.0 L 644.0 104.0 L 631.0 123.0 L 625.0 136.0 L 620.0 155.0 L 620.0 181.0 L 623.0 194.0 L 627.0 204.0 L 629.0 205.0 L 648.0 198.0 L 674.0 192.0 L 674.0 189.0 L 671.0 184.0 L 667.0 169.0 L 669.0 152.0 L 676.0 138.0 L 683.0 131.0 L 692.0 127.0 L 699.0 127.0 L 717.0 134.0 L 730.0 135.0 L 731.0 136.0 L 755.0 135.0 L 756.0 134.0 L 765.0 134.0 L 766.0 133.0 L 793.0 130.0 L 806.0 137.0 L 817.0 149.0 L 821.0 158.0 L 822.0 157.0 L 822.0 147.0 L 820.0 140.0 L 832.0 137.0 Z M 232.0 365.0 L 241.0 376.0 L 245.0 376.0 L 247.0 377.0 L 248.0 380.0 L 252.0 384.0 L 258.0 385.0 L 265.0 382.0 L 267.0 380.0 L 284.0 371.0 L 290.0 369.0 L 293.0 369.0 L 294.0 368.0 L 298.0 368.0 L 299.0 367.0 L 304.0 367.0 L 305.0 366.0 L 310.0 366.0 L 311.0 365.0 L 318.0 364.0 L 324.0 361.0 L 326.0 361.0 L 343.0 352.0 L 354.0 352.0 L 355.0 353.0 L 358.0 353.0 L 364.0 355.0 L 374.0 360.0 L 391.0 372.0 L 405.0 384.0 L 408.0 384.0 L 422.0 370.0 L 436.0 359.0 L 443.0 355.0 L 445.0 353.0 L 445.0 350.0 L 429.0 337.0 L 407.0 323.0 L 376.0 309.0 L 370.0 308.0 L 355.0 303.0 L 346.0 302.0 L 345.0 301.0 L 339.0 301.0 L 338.0 300.0 L 319.0 300.0 L 318.0 301.0 L 308.0 302.0 L 296.0 306.0 L 272.0 317.0 L 270.0 317.0 L 257.0 324.0 L 254.0 328.0 L 254.0 334.0 L 255.0 335.0 L 254.0 339.0 L 233.0 360.0 Z M 275.0 690.0 L 280.0 701.0 L 285.0 708.0 L 316.0 708.0 L 319.0 707.0 L 320.0 705.0 L 313.0 694.0 L 312.0 687.0 L 311.0 686.0 L 311.0 679.0 L 312.0 678.0 L 313.0 671.0 L 318.0 663.0 L 323.0 658.0 L 334.0 652.0 L 342.0 651.0 L 343.0 650.0 L 357.0 650.0 L 358.0 651.0 L 367.0 652.0 L 378.0 657.0 L 380.0 657.0 L 394.0 664.0 L 404.0 667.0 L 408.0 667.0 L 409.0 668.0 L 429.0 668.0 L 439.0 665.0 L 451.0 658.0 L 460.0 647.0 L 464.0 638.0 L 468.0 624.0 L 470.0 621.0 L 470.0 617.0 L 468.0 616.0 L 455.0 620.0 L 439.0 621.0 L 438.0 622.0 L 422.0 621.0 L 421.0 620.0 L 416.0 620.0 L 415.0 619.0 L 411.0 619.0 L 407.0 617.0 L 404.0 617.0 L 374.0 606.0 L 371.0 606.0 L 366.0 604.0 L 361.0 604.0 L 360.0 603.0 L 352.0 603.0 L 351.0 602.0 L 332.0 603.0 L 314.0 608.0 L 304.0 613.0 L 293.0 621.0 L 282.0 634.0 L 277.0 643.0 L 272.0 660.0 L 272.0 678.0 L 273.0 679.0 L 273.0 683.0 Z M 810.0 205.0 L 809.0 206.0 L 811.0 208.0 L 820.0 212.0 L 828.0 213.0 L 829.0 214.0 L 834.0 214.0 L 835.0 215.0 L 840.0 215.0 L 841.0 216.0 L 846.0 216.0 L 847.0 217.0 L 850.0 217.0 L 851.0 218.0 L 859.0 220.0 L 865.0 223.0 L 867.0 225.0 L 870.0 226.0 L 881.0 237.0 L 885.0 244.0 L 885.0 246.0 L 887.0 250.0 L 887.0 264.0 L 883.0 274.0 L 875.0 283.0 L 870.0 286.0 L 868.0 286.0 L 865.0 288.0 L 861.0 289.0 L 861.0 294.0 L 862.0 295.0 L 862.0 297.0 L 866.0 307.0 L 866.0 311.0 L 867.0 312.0 L 867.0 317.0 L 868.0 318.0 L 868.0 323.0 L 869.0 324.0 L 869.0 331.0 L 870.0 332.0 L 874.0 332.0 L 875.0 331.0 L 883.0 329.0 L 888.0 326.0 L 890.0 326.0 L 894.0 324.0 L 905.0 316.0 L 914.0 306.0 L 918.0 298.0 L 920.0 296.0 L 920.0 294.0 L 924.0 286.0 L 924.0 283.0 L 926.0 278.0 L 926.0 271.0 L 927.0 270.0 L 927.0 261.0 L 926.0 260.0 L 926.0 254.0 L 925.0 253.0 L 924.0 246.0 L 923.0 245.0 L 922.0 240.0 L 915.0 228.0 L 903.0 216.0 L 896.0 211.0 L 886.0 206.0 L 884.0 206.0 L 877.0 203.0 L 874.0 203.0 L 873.0 202.0 L 852.0 200.0 L 851.0 201.0 L 839.0 201.0 L 838.0 202.0 L 831.0 202.0 L 830.0 203.0 L 818.0 204.0 L 817.0 205.0 Z M 888.0 558.0 L 878.0 563.0 L 873.0 563.0 L 872.0 564.0 L 867.0 564.0 L 866.0 565.0 L 866.0 573.0 L 865.0 574.0 L 865.0 577.0 L 864.0 578.0 L 863.0 583.0 L 860.0 588.0 L 860.0 591.0 L 864.0 596.0 L 863.0 597.0 L 849.0 597.0 L 848.0 596.0 L 843.0 595.0 L 840.0 593.0 L 838.0 593.0 L 836.0 591.0 L 828.0 587.0 L 814.0 576.0 L 806.0 572.0 L 792.0 568.0 L 790.0 566.0 L 791.0 565.0 L 800.0 565.0 L 801.0 564.0 L 809.0 563.0 L 812.0 561.0 L 820.0 559.0 L 823.0 557.0 L 825.0 557.0 L 830.0 554.0 L 835.0 553.0 L 838.0 551.0 L 840.0 551.0 L 847.0 548.0 L 850.0 548.0 L 851.0 547.0 L 855.0 547.0 L 856.0 546.0 L 864.0 546.0 L 866.0 548.0 L 867.0 551.0 L 871.0 555.0 L 873.0 555.0 L 877.0 557.0 L 887.0 557.0 Z M 894.0 509.0 L 894.0 518.0 L 891.0 522.0 L 884.0 519.0 L 880.0 516.0 L 878.0 516.0 L 875.0 514.0 L 869.0 513.0 L 868.0 512.0 L 864.0 512.0 L 863.0 511.0 L 841.0 511.0 L 840.0 512.0 L 835.0 512.0 L 834.0 513.0 L 830.0 513.0 L 829.0 514.0 L 818.0 516.0 L 817.0 517.0 L 811.0 518.0 L 810.0 519.0 L 808.0 519.0 L 798.0 523.0 L 795.0 523.0 L 785.0 527.0 L 782.0 527.0 L 781.0 526.0 L 796.0 515.0 L 820.0 502.0 L 822.0 502.0 L 825.0 500.0 L 827.0 500.0 L 834.0 497.0 L 837.0 497.0 L 842.0 495.0 L 846.0 495.0 L 847.0 494.0 L 855.0 494.0 L 856.0 493.0 L 859.0 493.0 L 860.0 494.0 L 871.0 494.0 L 872.0 495.0 L 876.0 495.0 L 877.0 496.0 L 882.0 497.0 L 890.0 502.0 L 893.0 506.0 L 893.0 508.0 Z M 726.0 91.0 L 727.0 90.0 L 737.0 90.0 L 738.0 91.0 L 741.0 91.0 L 751.0 96.0 L 758.0 101.0 L 757.0 102.0 L 753.0 102.0 L 745.0 105.0 L 740.0 105.0 L 735.0 103.0 L 731.0 99.0 L 728.0 93.0 Z M 261.0 755.0 L 260.0 756.0 L 259.0 764.0 L 257.0 768.0 L 253.0 772.0 L 248.0 773.0 L 247.0 774.0 L 238.0 775.0 L 237.0 776.0 L 235.0 775.0 L 241.0 767.0 L 250.0 758.0 L 258.0 754.0 L 260.0 754.0 Z M 461.0 142.0 L 457.0 150.0 L 450.0 156.0 L 445.0 157.0 L 444.0 156.0 L 432.0 155.0 L 431.0 154.0 L 440.0 147.0 L 448.0 143.0 L 454.0 142.0 L 455.0 141.0 L 460.0 141.0 Z M 989.0 385.0 L 991.0 386.0 L 1000.0 396.0 L 1005.0 408.0 L 1005.0 410.0 L 1004.0 411.0 L 995.0 408.0 L 992.0 406.0 L 988.0 401.0 L 988.0 399.0 L 987.0 398.0 L 987.0 392.0 L 988.0 391.0 L 988.0 386.0 Z M 311.0 320.0 L 307.0 330.0 L 304.0 333.0 L 300.0 335.0 L 292.0 335.0 L 291.0 334.0 L 287.0 334.0 L 286.0 333.0 L 298.0 322.0 L 305.0 319.0 L 310.0 319.0 Z" fill="#000000" fill-rule="evenodd"/>
</svg>
